<svg xmlns="http://www.w3.org/2000/svg" xmlns:xlink="http://www.w3.org/1999/xlink" width="1024" zoomAndPan="magnify" viewBox="0 0 768 767.999994" height="1024" preserveAspectRatio="xMidYMid meet" version="1.0"><defs><g/><clipPath id="6903a353a8"><path d="M 0 0 L 768 0 L 768 768 L 0 768 Z M 0 0 " clip-rule="nonzero"/></clipPath><clipPath id="e4d2c64496"><rect x="0" width="768" y="0" height="768"/></clipPath></defs><rect x="-76.8" width="921.6" fill="#ffffff" y="-76.799999" height="921.599993" fill-opacity="1"/><rect x="-76.8" width="921.6" fill="#ffffff" y="-76.799999" height="921.599993" fill-opacity="1"/><g transform="matrix(1, 0, 0, 1, 0, -0.000000000000057351)"><g clip-path="url(#e4d2c64496)"><g clip-path="url(#6903a353a8)"><rect x="-168.96" width="1105.92" fill="#cc5500" height="1105.919991" y="-168.959999" fill-opacity="1"/></g></g></g><path fill="#002b36" d="M 114.679688 261.289062 L 114.679688 286.835938 L 184.316406 286.785156 C 248.933594 286.738281 254.039062 286.632812 255.144531 285.328125 C 256.355469 283.90625 261.804688 275.480469 265.914062 268.683594 C 267.148438 266.644531 272.019531 258.902344 276.738281 251.476562 C 281.457031 244.054688 285.507812 237.472656 285.746094 236.859375 C 286.105469 235.917969 272.378906 235.738281 200.429688 235.738281 L 114.679688 235.738281 Z M 301.859375 236.765625 C 301.410156 237.335938 298.71875 241.6875 295.878906 246.445312 C 293.039062 251.203125 289.46875 256.8125 287.945312 258.910156 C 286.421875 261.011719 285.175781 262.941406 285.175781 263.207031 C 285.175781 263.734375 277.539062 275.757812 264.953125 295.042969 C 263.035156 297.984375 258.398438 305.214844 254.652344 311.101562 C 250.445312 317.707031 246.214844 324.296875 241.957031 330.871094 C 238.71875 335.851562 233.746094 343.636719 230.902344 348.167969 C 228.0625 352.695312 223.082031 360.558594 219.832031 365.640625 C 215.242188 372.835938 210.664062 380.042969 206.105469 387.261719 C 201.542969 394.480469 196.96875 401.699219 192.386719 408.910156 C 188.6875 414.730469 185.011719 420.566406 181.359375 426.414062 C 178.535156 430.945312 174.679688 437.058594 172.785156 440.003906 C 170.890625 442.949219 167.023438 449.0625 164.1875 453.59375 C 161.355469 458.125 157.507812 464.238281 155.636719 467.183594 C 147.230469 480.417969 137.238281 496.050781 134.046875 500.953125 C 132.128906 503.898438 128.671875 509.273438 126.363281 512.898438 C 124.054688 516.523438 120.5 522.082031 118.460938 525.253906 L 114.757812 531.019531 L 130.988281 531.523438 C 139.910156 531.804688 153.226562 532.082031 160.578125 532.140625 L 173.941406 532.253906 L 177.171875 527.105469 C 178.945312 524.273438 183.238281 517.511719 186.707031 512.074219 C 194.101562 500.488281 209.136719 476.800781 212.84375 470.890625 C 214.265625 468.625 217.714844 463.25 220.507812 458.949219 C 223.300781 454.644531 230.183594 443.894531 235.804688 435.0625 C 241.421875 426.230469 248.25 415.578125 250.976562 411.398438 C 256.683594 402.648438 269.125 383.289062 278.644531 368.347656 C 282.253906 362.683594 287.886719 353.859375 291.160156 348.738281 C 294.4375 343.613281 299.769531 335.273438 303.007812 330.203125 C 312.464844 315.398438 315.894531 310.054688 322.679688 299.570312 C 328.183594 291.085938 333.640625 282.578125 339.058594 274.039062 C 343.757812 266.675781 348.464844 259.320312 353.1875 251.976562 C 358.363281 243.917969 362.597656 236.96875 362.597656 236.53125 C 362.597656 235.246094 302.878906 235.480469 301.859375 236.765625 M 218.644531 486.125 C 215.832031 490.660156 213.023438 495.199219 210.222656 499.742188 C 207.46875 504.210938 204.695312 508.675781 201.914062 513.128906 C 193.050781 527.25 190.585938 531.433594 191.109375 531.480469 C 191.429688 531.507812 229.867188 531.5 276.527344 531.464844 C 323.1875 531.429688 362.566406 531.410156 364.039062 531.417969 L 366.71875 531.429688 L 366.71875 481.1875 L 221.710938 481.1875 Z M 218.644531 486.125 " fill-opacity="1" fill-rule="evenodd"/><g fill="#ffffff" fill-opacity="1"><g transform="translate(325.252429, 410.085)"><g><path d="M 41.296875 -84.890625 C 44.242188 -89.503906 48.316406 -93.226562 53.515625 -96.0625 C 58.722656 -98.894531 64.8125 -100.3125 71.78125 -100.3125 C 79.9375 -100.3125 87.320312 -98.242188 93.9375 -94.109375 C 100.550781 -89.972656 105.773438 -84.066406 109.609375 -76.390625 C 113.453125 -68.710938 115.375 -59.789062 115.375 -49.625 C 115.375 -39.46875 113.453125 -30.519531 109.609375 -22.78125 C 105.773438 -15.039062 100.550781 -9.070312 93.9375 -4.875 C 87.320312 -0.675781 79.9375 1.421875 71.78125 1.421875 C 64.925781 1.421875 58.867188 0.00390625 53.609375 -2.828125 C 48.347656 -5.671875 44.242188 -9.335938 41.296875 -13.828125 L 41.296875 47.140625 L 10.984375 47.140625 L 10.984375 -98.890625 L 41.296875 -98.890625 Z M 84.546875 -49.625 C 84.546875 -57.1875 82.445312 -63.125 78.25 -67.4375 C 74.050781 -71.75 68.878906 -73.90625 62.734375 -73.90625 C 56.710938 -73.90625 51.601562 -71.71875 47.40625 -67.34375 C 43.21875 -62.976562 41.125 -57.015625 41.125 -49.453125 C 41.125 -41.890625 43.21875 -35.921875 47.40625 -31.546875 C 51.601562 -27.171875 56.710938 -24.984375 62.734375 -24.984375 C 68.765625 -24.984375 73.90625 -27.195312 78.15625 -31.625 C 82.414062 -36.0625 84.546875 -42.0625 84.546875 -49.625 Z M 84.546875 -49.625 "/></g></g></g><g fill="#ffffff" fill-opacity="1"><g transform="translate(445.59451, 410.085)"><g><path d="M 4.96875 -49.625 C 4.96875 -59.789062 6.882812 -68.710938 10.71875 -76.390625 C 14.5625 -84.066406 19.789062 -89.972656 26.40625 -94.109375 C 33.019531 -98.242188 40.40625 -100.3125 48.5625 -100.3125 C 55.53125 -100.3125 61.644531 -98.894531 66.90625 -96.0625 C 72.164062 -93.226562 76.210938 -89.503906 79.046875 -84.890625 L 79.046875 -98.890625 L 109.359375 -98.890625 L 109.359375 0 L 79.046875 0 L 79.046875 -14 C 76.085938 -9.394531 71.976562 -5.671875 66.71875 -2.828125 C 61.46875 0.00390625 55.359375 1.421875 48.390625 1.421875 C 40.347656 1.421875 33.019531 -0.675781 26.40625 -4.875 C 19.789062 -9.070312 14.5625 -15.039062 10.71875 -22.78125 C 6.882812 -30.519531 4.96875 -39.46875 4.96875 -49.625 Z M 79.046875 -49.453125 C 79.046875 -57.015625 76.945312 -62.976562 72.75 -67.34375 C 68.5625 -71.71875 63.453125 -73.90625 57.421875 -73.90625 C 51.398438 -73.90625 46.289062 -71.75 42.09375 -67.4375 C 37.894531 -63.125 35.796875 -57.1875 35.796875 -49.625 C 35.796875 -42.0625 37.894531 -36.0625 42.09375 -31.625 C 46.289062 -27.195312 51.398438 -24.984375 57.421875 -24.984375 C 63.453125 -24.984375 68.5625 -27.171875 72.75 -31.546875 C 76.945312 -35.921875 79.046875 -41.890625 79.046875 -49.453125 Z M 79.046875 -49.453125 "/></g></g></g><g fill="#ffffff" fill-opacity="1"><g transform="translate(565.936591, 410.085)"><g><path d="M 112.015625 -98.890625 L 49.984375 46.96875 L 17.375 46.96875 L 40.0625 -3.375 L -0.171875 -98.890625 L 33.671875 -98.890625 L 56.53125 -37.046875 L 79.21875 -98.890625 Z M 112.015625 -98.890625 "/></g></g></g></svg>